<svg width="306" height="203" viewBox="0 0 306 203" fill="none" xmlns="http://www.w3.org/2000/svg">
<g filter="url(#filter0_d_1_104)">
<rect x="4" y="18.6581" width="298" height="176.172" rx="20" fill="black"/>
</g>
<path fill-rule="evenodd" clip-rule="evenodd" d="M101.423 194.83L36.7062 18.7321C37.4645 18.6831 38.2293 18.6581 39 18.6581H67.2954L203.708 194.83H101.423Z" fill="url(#paint0_linear_1_104)" fill-opacity="0.81" style="mix-blend-mode:luminosity"/>
<path fill-rule="evenodd" clip-rule="evenodd" d="M103.411 17.6916L68.0122 17.618L200.222 194.746L222.256 194.792L103.411 17.6916Z" fill="url(#paint1_linear_1_104)" fill-opacity="0.81" style="mix-blend-mode:hard-light"/>
<path d="M4 38.6581C4 27.6125 12.9543 18.6581 24 18.6581H282C293.046 18.6581 302 27.6124 302 38.6581V174.83C302 185.876 293.046 194.83 282 194.83H24C12.9543 194.83 4 185.876 4 174.83V38.6581Z" fill="url(#paint2_linear_1_104)" fill-opacity="0.89" style="mix-blend-mode:color"/>
<path fill-rule="evenodd" clip-rule="evenodd" d="M87.1796 194.811H24C12.9543 194.811 4 185.857 4 174.811V80.1387L87.1796 194.811Z" fill="url(#paint3_linear_1_104)" fill-opacity="0.71"/>
<path d="M32.1586 97.5791V99.8364H31.8217C30.2943 99.8589 29.0739 100.278 28.1605 101.094C27.2471 101.91 26.7043 103.067 26.5321 104.564C27.4081 103.644 28.5274 103.183 29.89 103.183C31.335 103.183 32.473 103.692 33.3041 104.71C34.1426 105.729 34.5619 107.043 34.5619 108.652C34.5619 110.314 34.0715 111.662 33.0907 112.695C32.1174 113.721 30.8371 114.234 29.2499 114.234C27.6177 114.234 26.2925 113.631 25.2743 112.426C24.2635 111.22 23.7582 109.641 23.7582 107.687V106.754C23.7582 103.887 24.4545 101.641 25.847 100.016C27.2471 98.3914 29.2574 97.5791 31.8778 97.5791H32.1586ZM29.2274 105.384C28.6285 105.384 28.0782 105.553 27.5765 105.89C27.0824 106.227 26.7193 106.676 26.4872 107.237V108.068C26.4872 109.281 26.7417 110.247 27.2509 110.966C27.76 111.677 28.4188 112.033 29.2274 112.033C30.036 112.033 30.6761 111.729 31.1478 111.123C31.6195 110.517 31.8553 109.719 31.8553 108.731C31.8553 107.743 31.6158 106.938 31.1366 106.316C30.6574 105.695 30.021 105.384 29.2274 105.384ZM47.7352 114.009H36.7406V112.134L42.1874 106.193C42.9735 105.317 43.5313 104.587 43.8607 104.003C44.1976 103.411 44.3661 102.82 44.3661 102.229C44.3661 101.45 44.1452 100.821 43.7035 100.342C43.2692 99.8626 42.6815 99.623 41.9403 99.623C41.0568 99.623 40.3718 99.8926 39.8851 100.432C39.3985 100.971 39.1552 101.708 39.1552 102.644H36.4261C36.4261 101.648 36.6508 100.754 37.1 99.96C37.5567 99.1589 38.2043 98.5374 39.0428 98.0957C39.8889 97.654 40.8622 97.4331 41.9628 97.4331C43.55 97.4331 44.8003 97.8337 45.7137 98.6348C46.6346 99.4284 47.0951 100.529 47.0951 101.937C47.0951 102.753 46.863 103.61 46.3988 104.508C45.9421 105.399 45.1897 106.414 44.1415 107.552L40.1434 111.831H47.7352V114.009ZM57.2025 114.009H54.4847V100.881L50.4755 102.251V99.9487L56.8544 97.6016H57.2025V114.009ZM73.8798 114.009H62.8851V112.134L68.3319 106.193C69.118 105.317 69.6758 104.587 70.0052 104.003C70.3422 103.411 70.5106 102.82 70.5106 102.229C70.5106 101.45 70.2898 100.821 69.848 100.342C69.4138 99.8626 68.826 99.623 68.0848 99.623C67.2014 99.623 66.5163 99.8926 66.0297 100.432C65.543 100.971 65.2997 101.708 65.2997 102.644H62.5707C62.5707 101.648 62.7953 100.754 63.2445 99.96C63.7012 99.1589 64.3488 98.5374 65.1874 98.0957C66.0334 97.654 67.0067 97.4331 68.1073 97.4331C69.6945 97.4331 70.9449 97.8337 71.8583 98.6348C72.7792 99.4284 73.2396 100.529 73.2396 101.937C73.2396 102.753 73.0075 103.61 72.5433 104.508C72.0866 105.399 71.3342 106.414 70.286 107.552L66.288 111.831H73.8798V114.009ZM98.4071 114.009H87.4125V112.134L92.8593 106.193C93.6454 105.317 94.2032 104.587 94.5326 104.003C94.8695 103.411 95.038 102.82 95.038 102.229C95.038 101.45 94.8171 100.821 94.3754 100.342C93.9411 99.8626 93.3534 99.623 92.6122 99.623C91.7287 99.623 91.0437 99.8926 90.557 100.432C90.0704 100.971 89.827 101.708 89.827 102.644H87.098C87.098 101.648 87.3226 100.754 87.7719 99.96C88.2286 99.1589 88.8762 98.5374 89.7147 98.0957C90.5608 97.654 91.5341 97.4331 92.6346 97.4331C94.2219 97.4331 95.4722 97.8337 96.3856 98.6348C97.3065 99.4284 97.767 100.529 97.767 101.937C97.767 102.753 97.5349 103.61 97.0707 104.508C96.614 105.399 95.8615 106.414 94.8134 107.552L90.8153 111.831H98.4071V114.009ZM107.874 114.009H105.157V100.881L101.147 102.251V99.9487L107.526 97.6016H107.874V114.009ZM120.947 114.009H118.229V100.881L114.22 102.251V99.9487L120.599 97.6016H120.947V114.009ZM127.359 105.901L128.246 97.6577H137.029V100.016H130.515L130.066 103.924C130.822 103.49 131.675 103.273 132.626 103.273C134.184 103.273 135.393 103.771 136.254 104.767C137.122 105.762 137.557 107.103 137.557 108.787C137.557 110.449 137.077 111.774 136.119 112.763C135.161 113.743 133.847 114.234 132.177 114.234C130.68 114.234 129.437 113.811 128.449 112.965C127.468 112.111 126.936 110.988 126.854 109.596H129.493C129.598 110.389 129.882 111 130.347 111.426C130.811 111.846 131.417 112.055 132.166 112.055C133.004 112.055 133.656 111.756 134.12 111.157C134.592 110.558 134.828 109.742 134.828 108.708C134.828 107.713 134.569 106.927 134.053 106.35C133.536 105.766 132.825 105.474 131.919 105.474C131.425 105.474 131.005 105.542 130.661 105.676C130.317 105.804 129.942 106.058 129.538 106.44L127.359 105.901ZM151.887 105.901L152.774 97.6577H161.556V100.016H155.042L154.593 103.924C155.349 103.49 156.203 103.273 157.154 103.273C158.711 103.273 159.92 103.771 160.781 104.767C161.65 105.762 162.084 107.103 162.084 108.787C162.084 110.449 161.605 111.774 160.646 112.763C159.688 113.743 158.374 114.234 156.704 114.234C155.207 114.234 153.964 113.811 152.976 112.965C151.995 112.111 151.464 110.988 151.381 109.596H154.02C154.125 110.389 154.41 111 154.874 111.426C155.338 111.846 155.945 112.055 156.693 112.055C157.532 112.055 158.183 111.756 158.647 111.157C159.119 110.558 159.355 109.742 159.355 108.708C159.355 107.713 159.097 106.927 158.58 106.35C158.063 105.766 157.352 105.474 156.446 105.474C155.952 105.474 155.533 105.542 155.188 105.676C154.844 105.804 154.47 106.058 154.065 106.44L151.887 105.901ZM175.224 114.009H164.229V112.134L169.676 106.193C170.462 105.317 171.02 104.587 171.349 104.003C171.686 103.411 171.854 102.82 171.854 102.229C171.854 101.45 171.634 100.821 171.192 100.342C170.758 99.8626 170.17 99.623 169.429 99.623C168.545 99.623 167.86 99.8926 167.373 100.432C166.887 100.971 166.643 101.708 166.643 102.644H163.914C163.914 101.648 164.139 100.754 164.588 99.96C165.045 99.1589 165.693 98.5374 166.531 98.0957C167.377 97.654 168.35 97.4331 169.451 97.4331C171.038 97.4331 172.289 97.8337 173.202 98.6348C174.123 99.4284 174.583 100.529 174.583 101.937C174.583 102.753 174.351 103.61 173.887 104.508C173.43 105.399 172.678 106.414 171.63 107.552L167.632 111.831H175.224V114.009ZM180.457 104.587H182.119C182.958 104.579 183.62 104.362 184.107 103.936C184.601 103.509 184.848 102.891 184.848 102.083C184.848 101.304 184.642 100.701 184.23 100.274C183.826 99.8402 183.205 99.623 182.366 99.623C181.632 99.623 181.03 99.8364 180.558 100.263C180.086 100.682 179.85 101.233 179.85 101.914H177.121C177.121 101.076 177.342 100.312 177.784 99.623C178.233 98.9342 178.855 98.3989 179.648 98.0171C180.449 97.6278 181.344 97.4331 182.332 97.4331C183.965 97.4331 185.245 97.8449 186.173 98.6685C187.109 99.4845 187.577 100.623 187.577 102.083C187.577 102.816 187.341 103.509 186.87 104.16C186.405 104.804 185.803 105.291 185.061 105.62C185.96 105.927 186.641 106.41 187.105 107.069C187.577 107.728 187.813 108.514 187.813 109.427C187.813 110.895 187.307 112.063 186.297 112.931C185.293 113.8 183.972 114.234 182.332 114.234C180.76 114.234 179.472 113.815 178.469 112.976C177.466 112.138 176.964 111.022 176.964 109.629H179.693C179.693 110.348 179.933 110.932 180.412 111.381C180.899 111.831 181.55 112.055 182.366 112.055C183.212 112.055 183.878 111.831 184.365 111.381C184.852 110.932 185.095 110.281 185.095 109.427C185.095 108.566 184.841 107.904 184.331 107.439C183.822 106.975 183.066 106.743 182.063 106.743H180.457V104.587ZM199.605 108.181H201.638V110.371H199.605V114.009H196.876V110.371H189.812L189.733 108.708L196.786 97.6577H199.605V108.181ZM192.597 108.181H196.876V101.353L196.674 101.712L192.597 108.181ZM224.132 108.181H226.165V110.371H224.132V114.009H221.403V110.371H214.339L214.261 108.708L221.313 97.6577H224.132V108.181ZM217.124 108.181H221.403V101.353L221.201 101.712L217.124 108.181ZM238.631 107.125C238.631 109.476 238.189 111.25 237.306 112.448C236.43 113.639 235.093 114.234 233.296 114.234C231.529 114.234 230.197 113.654 229.298 112.493C228.407 111.325 227.951 109.599 227.928 107.316V104.486C227.928 102.135 228.366 100.372 229.242 99.1963C230.126 98.0208 231.469 97.4331 233.274 97.4331C235.063 97.4331 236.396 98.0059 237.272 99.1514C238.155 100.297 238.608 102.011 238.631 104.295V107.125ZM235.902 104.07C235.902 102.535 235.692 101.412 235.273 100.701C234.854 99.9824 234.187 99.623 233.274 99.623C232.383 99.623 231.728 99.9637 231.308 100.645C230.889 101.319 230.668 102.375 230.646 103.812V107.518C230.646 109.045 230.859 110.183 231.286 110.932C231.713 111.681 232.383 112.055 233.296 112.055C234.172 112.055 234.82 111.711 235.239 111.022C235.658 110.326 235.879 109.24 235.902 107.765V104.07ZM241.775 105.901L242.662 97.6577H251.445V100.016H244.931L244.482 103.924C245.238 103.49 246.092 103.273 247.042 103.273C248.6 103.273 249.809 103.771 250.67 104.767C251.538 105.762 251.973 107.103 251.973 108.787C251.973 110.449 251.493 111.774 250.535 112.763C249.577 113.743 248.263 114.234 246.593 114.234C245.096 114.234 243.853 113.811 242.865 112.965C241.884 112.111 241.352 110.988 241.27 109.596H243.909C244.014 110.389 244.298 111 244.763 111.426C245.227 111.846 245.833 112.055 246.582 112.055C247.42 112.055 248.072 111.756 248.536 111.157C249.008 110.558 249.244 109.742 249.244 108.708C249.244 107.713 248.985 106.927 248.469 106.35C247.952 105.766 247.241 105.474 246.335 105.474C245.841 105.474 245.421 105.542 245.077 105.676C244.733 105.804 244.358 106.058 243.954 106.44L241.775 105.901ZM261.507 114.009H258.789V100.881L254.78 102.251V99.9487L261.159 97.6016H261.507V114.009Z" fill="white"/>
<path d="M27.2196 146.333C26.8094 146.333 26.4423 146.408 26.118 146.556C25.7977 146.704 25.5262 146.919 25.3036 147.201C25.0809 147.478 24.911 147.816 24.7938 148.214C24.6766 148.609 24.618 149.054 24.618 149.55C24.618 150.214 24.7118 150.786 24.8993 151.267C25.0868 151.743 25.3719 152.111 25.7548 152.368C26.1376 152.622 26.6219 152.749 27.2079 152.749C27.5712 152.749 27.9247 152.714 28.2684 152.644C28.6122 152.574 28.9677 152.478 29.3348 152.357V153.552C28.9872 153.689 28.6356 153.788 28.2802 153.851C27.9247 153.913 27.5145 153.945 27.0497 153.945C26.1747 153.945 25.4481 153.763 24.87 153.4C24.2958 153.036 23.8661 152.525 23.5809 151.865C23.2997 151.204 23.1591 150.431 23.1591 149.544C23.1591 148.896 23.2489 148.302 23.4286 147.763C23.6083 147.224 23.87 146.759 24.2137 146.368C24.5575 145.974 24.9813 145.671 25.4852 145.46C25.993 145.245 26.5731 145.138 27.2255 145.138C27.6552 145.138 28.077 145.187 28.4911 145.285C28.9091 145.378 29.2958 145.513 29.6512 145.689L29.1591 146.849C28.8622 146.708 28.5516 146.587 28.2274 146.486C27.9032 146.384 27.5673 146.333 27.2196 146.333ZM31.6547 153.827V145.261H33.0609V152.632H36.6996V153.827H31.6547ZM43.5136 153.827H38.662V145.261H43.5136V146.445H40.0683V148.771H43.2968V149.949H40.0683V152.638H43.5136V153.827ZM45.8452 153.827V145.261H47.2514V153.827H45.8452ZM52.9638 153.827H51.5517V146.456H49.0439V145.261H55.4658V146.456H52.9638V153.827ZM57.2583 153.827V145.261H58.6645V153.827H57.2583ZM68.5547 153.827H66.8262L62.6309 146.99H62.5781C62.5937 147.22 62.6074 147.464 62.6191 147.722C62.6348 147.98 62.6465 148.245 62.6543 148.519C62.666 148.792 62.6758 149.07 62.6836 149.351V153.827H61.4062V145.261H63.123L67.3125 152.052H67.3535C67.3457 151.853 67.3359 151.624 67.3242 151.367C67.3125 151.109 67.3008 150.843 67.2891 150.57C67.2812 150.292 67.2754 150.025 67.2715 149.767V145.261H68.5547V153.827ZM77.2901 145.261C78.0284 145.261 78.6377 145.351 79.1182 145.531C79.6026 145.71 79.9619 145.984 80.1963 146.351C80.4346 146.718 80.5537 147.185 80.5537 147.751C80.5537 148.173 80.4756 148.533 80.3194 148.829C80.1631 149.126 79.958 149.372 79.7041 149.568C79.4502 149.763 79.1787 149.919 78.8897 150.036L81.3213 153.827H79.7334L77.6651 150.394H76.2881V153.827H74.8819V145.261H77.2901ZM77.1963 146.433H76.2881V149.234H77.2608C77.9131 149.234 78.3858 149.113 78.6787 148.87C78.9756 148.628 79.1241 148.271 79.1241 147.798C79.1241 147.302 78.9659 146.951 78.6494 146.743C78.3369 146.536 77.8526 146.433 77.1963 146.433ZM87.8775 153.827H83.0259V145.261H87.8775V146.445H84.4322V148.771H87.6607V149.949H84.4322V152.638H87.8775V153.827ZM90.2091 153.827V145.261H91.6153V153.827H90.2091ZM99.3023 151.495C99.3023 152.003 99.1773 152.441 98.9273 152.808C98.6812 153.175 98.3258 153.456 97.8609 153.652C97.4 153.847 96.8492 153.945 96.2086 153.945C95.8961 153.945 95.5973 153.927 95.3121 153.892C95.0269 153.857 94.7574 153.806 94.5035 153.74C94.2535 153.669 94.025 153.585 93.818 153.488V152.163C94.1656 152.316 94.5543 152.454 94.984 152.579C95.4137 152.701 95.8512 152.761 96.2965 152.761C96.6598 152.761 96.9605 152.714 97.1988 152.62C97.441 152.523 97.6207 152.386 97.7379 152.21C97.8551 152.031 97.9137 151.822 97.9137 151.583C97.9137 151.329 97.8453 151.115 97.7086 150.939C97.5719 150.763 97.3648 150.603 97.0875 150.458C96.8141 150.31 96.4703 150.152 96.0562 149.984C95.775 149.87 95.5055 149.742 95.2477 149.597C94.9937 149.452 94.7672 149.283 94.568 149.087C94.3687 148.892 94.2105 148.661 94.0934 148.396C93.9801 148.126 93.9234 147.81 93.9234 147.447C93.9234 146.962 94.0387 146.548 94.2691 146.204C94.5035 145.861 94.8316 145.597 95.2535 145.413C95.6793 145.23 96.1754 145.138 96.7418 145.138C97.191 145.138 97.6129 145.185 98.0074 145.279C98.4059 145.372 98.7965 145.505 99.1793 145.677L98.734 146.808C98.3824 146.663 98.0406 146.548 97.7086 146.462C97.3805 146.376 97.0445 146.333 96.7008 146.333C96.4039 146.333 96.1519 146.378 95.9449 146.468C95.7379 146.558 95.5797 146.685 95.4703 146.849C95.3648 147.009 95.3121 147.201 95.3121 147.423C95.3121 147.673 95.3727 147.884 95.4937 148.056C95.6187 148.224 95.8102 148.378 96.068 148.519C96.3297 148.66 96.6656 148.816 97.0758 148.988C97.5484 149.183 97.9488 149.388 98.2769 149.603C98.609 149.818 98.8629 150.076 99.0387 150.376C99.2144 150.673 99.3023 151.046 99.3023 151.495Z" fill="white"/>
<path d="M28.7841 165.718C28.7841 166.409 28.7294 167.028 28.62 167.575C28.5145 168.118 28.3466 168.579 28.1161 168.958C27.8856 169.337 27.5848 169.626 27.2137 169.825C26.8427 170.024 26.3934 170.124 25.8661 170.124C25.2059 170.124 24.661 169.95 24.2313 169.602C23.8016 169.251 23.4833 168.747 23.2762 168.091C23.0692 167.43 22.9657 166.639 22.9657 165.718C22.9657 164.796 23.0594 164.007 23.2469 163.35C23.4384 162.69 23.7469 162.184 24.1727 161.833C24.5985 161.481 25.163 161.305 25.8661 161.305C26.5302 161.305 27.077 161.481 27.5067 161.833C27.9403 162.18 28.2606 162.684 28.4677 163.344C28.6786 164.001 28.7841 164.792 28.7841 165.718ZM24.3544 165.718C24.3544 166.44 24.4012 167.044 24.495 167.528C24.5927 168.012 24.7528 168.376 24.9755 168.618C25.1981 168.856 25.495 168.975 25.8661 168.975C26.2372 168.975 26.5341 168.856 26.7567 168.618C26.9794 168.38 27.1395 168.018 27.2372 167.534C27.3387 167.05 27.3895 166.444 27.3895 165.718C27.3895 164.999 27.3407 164.397 27.243 163.913C27.1454 163.428 26.9852 163.065 26.7626 162.823C26.5399 162.577 26.2411 162.454 25.8661 162.454C25.4911 162.454 25.1923 162.577 24.9696 162.823C24.7509 163.065 24.5927 163.428 24.495 163.913C24.4012 164.397 24.3544 164.999 24.3544 165.718ZM36.1312 170.007H30.3305V168.969L32.5512 166.719C32.9809 166.282 33.3344 165.905 33.6117 165.589C33.8891 165.268 34.0941 164.966 34.2269 164.68C34.3637 164.395 34.432 164.085 34.432 163.749C34.432 163.335 34.3129 163.022 34.0746 162.811C33.8363 162.596 33.5219 162.489 33.1312 162.489C32.7602 162.489 32.4164 162.563 32.1 162.712C31.7875 162.856 31.4633 163.063 31.1273 163.333L30.3715 162.425C30.6098 162.221 30.8637 162.036 31.1332 161.868C31.4066 161.7 31.7113 161.567 32.0473 161.469C32.3832 161.368 32.766 161.317 33.1957 161.317C33.7387 161.317 34.2074 161.415 34.6019 161.61C34.9965 161.802 35.2992 162.069 35.5102 162.413C35.725 162.757 35.8324 163.157 35.8324 163.614C35.8324 164.075 35.7406 164.501 35.557 164.891C35.3734 165.282 35.1117 165.669 34.7719 166.052C34.432 166.43 34.0277 166.843 33.559 167.288L32.0766 168.735V168.8H36.1312V170.007ZM41.7265 161.44L38.5331 170.007H37.2441L40.4374 161.44H41.7265ZM48.6459 170.007H42.8452V168.969L45.0659 166.719C45.4955 166.282 45.8491 165.905 46.1264 165.589C46.4037 165.268 46.6088 164.966 46.7416 164.68C46.8784 164.395 46.9467 164.085 46.9467 163.749C46.9467 163.335 46.8276 163.022 46.5893 162.811C46.351 162.596 46.0366 162.489 45.6459 162.489C45.2748 162.489 44.9311 162.563 44.6147 162.712C44.3022 162.856 43.978 163.063 43.642 163.333L42.8862 162.425C43.1244 162.221 43.3784 162.036 43.6479 161.868C43.9213 161.7 44.226 161.567 44.5619 161.469C44.8979 161.368 45.2807 161.317 45.7104 161.317C46.2534 161.317 46.7221 161.415 47.1166 161.61C47.5112 161.802 47.8139 162.069 48.0248 162.413C48.2397 162.757 48.3471 163.157 48.3471 163.614C48.3471 164.075 48.2553 164.501 48.0717 164.891C47.8881 165.282 47.6264 165.669 47.2866 166.052C46.9467 166.43 46.5424 166.843 46.0737 167.288L44.5912 168.735V168.8H48.6459V170.007ZM51.1709 170.007L54.5341 162.647H50.0869V161.44H56.0166V162.384L52.6533 170.007H51.1709Z" fill="white"/>
<path d="M30.0352 71.168C27.5449 71.168 25.6357 70.7197 24.3076 69.8232C22.9795 68.9268 22.3154 67.6706 22.3154 66.0547C22.3154 64.9258 22.6696 63.9684 23.3779 63.1826C24.0863 62.4079 25.099 61.8711 26.416 61.5723C25.918 61.3509 25.4863 61.0078 25.1211 60.543C24.7669 60.0671 24.5898 59.5413 24.5898 58.9658C24.5898 58.2796 24.7835 57.693 25.1709 57.2061C25.5583 56.7191 26.1393 56.2487 26.9141 55.7949C25.9512 55.3854 25.1764 54.7214 24.5898 53.8027C24.0143 52.873 23.7266 51.7829 23.7266 50.5322C23.7266 49.2041 24.0088 48.0752 24.5732 47.1455C25.1377 46.2048 25.9622 45.4909 27.0469 45.0039C28.1315 44.5059 29.443 44.2568 30.9814 44.2568C31.3135 44.2568 31.6732 44.279 32.0605 44.3232C32.459 44.3564 32.8242 44.4007 33.1562 44.4561C33.4993 44.5003 33.7594 44.5501 33.9365 44.6055H40.2949V46.7803L37.1738 47.3613C37.4727 47.7819 37.7106 48.2633 37.8877 48.8057C38.0648 49.3369 38.1533 49.918 38.1533 50.5488C38.1533 52.4525 37.4948 53.9521 36.1777 55.0479C34.8717 56.1325 33.0677 56.6748 30.7656 56.6748C30.2122 56.6527 29.6755 56.6084 29.1553 56.542C28.7568 56.7855 28.4525 57.0566 28.2422 57.3555C28.0319 57.6432 27.9268 57.9697 27.9268 58.335C27.9268 58.6338 28.0319 58.8773 28.2422 59.0654C28.4525 59.2425 28.7624 59.3753 29.1719 59.4639C29.5924 59.5524 30.1016 59.5967 30.6992 59.5967H33.8701C35.8844 59.5967 37.4229 60.0228 38.4854 60.875C39.5479 61.7272 40.0791 62.9779 40.0791 64.627C40.0791 66.7188 39.2158 68.3291 37.4893 69.458C35.7627 70.598 33.278 71.168 30.0352 71.168ZM30.1846 68.4287C31.5459 68.4287 32.6914 68.2959 33.6211 68.0303C34.5508 67.7646 35.2536 67.3828 35.7295 66.8848C36.2054 66.3978 36.4434 65.8167 36.4434 65.1416C36.4434 64.5439 36.2939 64.0846 35.9951 63.7637C35.6963 63.4427 35.248 63.2214 34.6504 63.0996C34.0527 62.9779 33.3112 62.917 32.4258 62.917H29.5371C28.8177 62.917 28.1813 63.0277 27.6279 63.249C27.0745 63.4814 26.6429 63.8135 26.333 64.2451C26.0342 64.6768 25.8848 65.1969 25.8848 65.8057C25.8848 66.6468 26.2555 67.2943 26.9971 67.748C27.7497 68.2018 28.8122 68.4287 30.1846 68.4287ZM30.9482 54.1182C32.0882 54.1182 32.9349 53.8083 33.4883 53.1885C34.0417 52.5576 34.3184 51.6722 34.3184 50.5322C34.3184 49.2926 34.0306 48.363 33.4551 47.7432C32.8906 47.1234 32.0495 46.8135 30.9316 46.8135C29.8359 46.8135 29.0003 47.1289 28.4248 47.7598C27.8604 48.3906 27.5781 49.3258 27.5781 50.5654C27.5781 51.6833 27.8604 52.5576 28.4248 53.1885C29.0003 53.8083 29.8415 54.1182 30.9482 54.1182ZM59.918 53.7695C59.918 55.2969 59.7188 56.6527 59.3203 57.8369C58.9219 59.0212 58.3408 60.0228 57.5771 60.8418C56.8135 61.6497 55.8949 62.2695 54.8213 62.7012C53.7477 63.1217 52.5358 63.332 51.1855 63.332C49.9238 63.332 48.7673 63.1217 47.7158 62.7012C46.6644 62.2695 45.7513 61.6497 44.9766 60.8418C44.2129 60.0228 43.6208 59.0212 43.2002 57.8369C42.7796 56.6527 42.5693 55.2969 42.5693 53.7695C42.5693 51.7441 42.918 50.0286 43.6152 48.623C44.3236 47.2064 45.3307 46.1273 46.6367 45.3857C47.9427 44.6442 49.4977 44.2734 51.3018 44.2734C52.9951 44.2734 54.4893 44.6442 55.7842 45.3857C57.0791 46.1273 58.0918 47.2064 58.8223 48.623C59.5527 50.0397 59.918 51.7552 59.918 53.7695ZM46.5869 53.7695C46.5869 55.1087 46.7474 56.2542 47.0684 57.2061C47.4004 58.1579 47.9095 58.8883 48.5957 59.3975C49.2819 59.8955 50.1673 60.1445 51.252 60.1445C52.3366 60.1445 53.222 59.8955 53.9082 59.3975C54.5944 58.8883 55.098 58.1579 55.4189 57.2061C55.7399 56.2542 55.9004 55.1087 55.9004 53.7695C55.9004 52.4303 55.7399 51.2959 55.4189 50.3662C55.098 49.4255 54.5944 48.7116 53.9082 48.2246C53.222 47.7266 52.3311 47.4775 51.2354 47.4775C49.6195 47.4775 48.4408 48.0199 47.6992 49.1045C46.9577 50.1891 46.5869 51.7441 46.5869 53.7695Z" fill="#FFD7CB"/>
<path d="M31.8435 71.168C29.3533 71.168 27.4441 70.7197 26.116 69.8232C24.7878 68.9268 24.1238 67.6706 24.1238 66.0547C24.1238 64.9258 24.4779 63.9684 25.1863 63.1826C25.8946 62.4079 26.9073 61.8711 28.2244 61.5723C27.7263 61.3509 27.2947 61.0078 26.9294 60.543C26.5753 60.0671 26.3982 59.5413 26.3982 58.9658C26.3982 58.2796 26.5919 57.693 26.9792 57.2061C27.3666 56.7191 27.9477 56.2487 28.7224 55.7949C27.7595 55.3854 26.9848 54.7214 26.3982 53.8027C25.8227 52.873 25.5349 51.7829 25.5349 50.5322C25.5349 49.2041 25.8171 48.0752 26.3816 47.1455C26.946 46.2048 27.7706 45.4909 28.8552 45.0039C29.9399 44.5059 31.2514 44.2568 32.7898 44.2568C33.1218 44.2568 33.4815 44.279 33.8689 44.3232C34.2673 44.3564 34.6326 44.4007 34.9646 44.4561C35.3077 44.5003 35.5678 44.5501 35.7449 44.6055H42.1033V46.7803L38.9822 47.3613C39.281 47.7819 39.519 48.2633 39.696 48.8057C39.8731 49.3369 39.9617 49.918 39.9617 50.5488C39.9617 52.4525 39.3031 53.9521 37.9861 55.0479C36.6801 56.1325 34.8761 56.6748 32.574 56.6748C32.0206 56.6527 31.4838 56.6084 30.9636 56.542C30.5652 56.7855 30.2608 57.0566 30.0505 57.3555C29.8403 57.6432 29.7351 57.9697 29.7351 58.335C29.7351 58.6338 29.8403 58.8773 30.0505 59.0654C30.2608 59.2425 30.5707 59.3753 30.9802 59.4639C31.4008 59.5524 31.9099 59.5967 32.5076 59.5967H35.6785C37.6928 59.5967 39.2312 60.0228 40.2937 60.875C41.3562 61.7272 41.8875 62.9779 41.8875 64.627C41.8875 66.7188 41.0242 68.3291 39.2976 69.458C37.571 70.598 35.0863 71.168 31.8435 71.168ZM31.9929 68.4287C33.3542 68.4287 34.4998 68.2959 35.4294 68.0303C36.3591 67.7646 37.0619 67.3828 37.5378 66.8848C38.0138 66.3978 38.2517 65.8167 38.2517 65.1416C38.2517 64.5439 38.1023 64.0846 37.8035 63.7637C37.5046 63.4427 37.0564 63.2214 36.4587 63.0996C35.8611 62.9779 35.1195 62.917 34.2341 62.917H31.3455C30.6261 62.917 29.9897 63.0277 29.4363 63.249C28.8829 63.4814 28.4513 63.8135 28.1414 64.2451C27.8425 64.6768 27.6931 65.1969 27.6931 65.8057C27.6931 66.6468 28.0639 67.2943 28.8054 67.748C29.558 68.2018 30.6205 68.4287 31.9929 68.4287ZM32.7566 54.1182C33.8966 54.1182 34.7432 53.8083 35.2966 53.1885C35.85 52.5576 36.1267 51.6722 36.1267 50.5322C36.1267 49.2926 35.8389 48.363 35.2634 47.7432C34.699 47.1234 33.8578 46.8135 32.74 46.8135C31.6443 46.8135 30.8087 47.1289 30.2332 47.7598C29.6687 48.3906 29.3865 49.3258 29.3865 50.5654C29.3865 51.6833 29.6687 52.5576 30.2332 53.1885C30.8087 53.8083 31.6498 54.1182 32.7566 54.1182ZM61.7263 53.7695C61.7263 55.2969 61.5271 56.6527 61.1287 57.8369C60.7302 59.0212 60.1492 60.0228 59.3855 60.8418C58.6218 61.6497 57.7032 62.2695 56.6296 62.7012C55.5561 63.1217 54.3442 63.332 52.9939 63.332C51.7322 63.332 50.5756 63.1217 49.5242 62.7012C48.4727 62.2695 47.5597 61.6497 46.7849 60.8418C46.0212 60.0228 45.4291 59.0212 45.0085 57.8369C44.588 56.6527 44.3777 55.2969 44.3777 53.7695C44.3777 51.7441 44.7263 50.0286 45.4236 48.623C46.1319 47.2064 47.1391 46.1273 48.4451 45.3857C49.7511 44.6442 51.3061 44.2734 53.1101 44.2734C54.8035 44.2734 56.2976 44.6442 57.5925 45.3857C58.8875 46.1273 59.9001 47.2064 60.6306 48.623C61.3611 50.0397 61.7263 51.7552 61.7263 53.7695ZM48.3953 53.7695C48.3953 55.1087 48.5557 56.2542 48.8767 57.2061C49.2087 58.1579 49.7179 58.8883 50.4041 59.3975C51.0903 59.8955 51.9757 60.1445 53.0603 60.1445C54.1449 60.1445 55.0304 59.8955 55.7166 59.3975C56.4028 58.8883 56.9063 58.1579 57.2273 57.2061C57.5483 56.2542 57.7087 55.1087 57.7087 53.7695C57.7087 52.4303 57.5483 51.2959 57.2273 50.3662C56.9063 49.4255 56.4028 48.7116 55.7166 48.2246C55.0304 47.7266 54.1394 47.4775 53.0437 47.4775C51.4278 47.4775 50.2491 48.0199 49.5076 49.1045C48.766 50.1891 48.3953 51.7441 48.3953 53.7695Z" fill="white"/>
<path d="M267.282 158.265C267.282 165.314 261.534 171.028 254.443 171.028C247.352 171.028 241.604 165.314 241.604 158.265C241.604 151.216 247.352 145.501 254.443 145.501C261.534 145.501 267.282 151.216 267.282 158.265Z" fill="#F0652A"/>
<path d="M283.556 158.265C283.556 165.314 277.808 171.028 270.717 171.028C263.627 171.028 257.879 165.314 257.879 158.265C257.879 151.216 263.627 145.501 270.717 145.501C277.808 145.501 283.556 151.216 283.556 158.265Z" fill="#FE9B02"/>
<path d="M267.282 158.265C267.282 165.314 261.534 171.028 254.443 171.028C247.352 171.028 241.604 165.314 241.604 158.265C241.604 151.216 247.352 145.501 254.443 145.501C261.534 145.501 267.282 151.216 267.282 158.265Z" fill="#F0422A" fill-opacity="0.58"/>
<defs>
<filter id="filter0_d_1_104" x="0" y="18.6581" width="306" height="184.172" filterUnits="userSpaceOnUse" color-interpolation-filters="sRGB">
<feFlood flood-opacity="0" result="BackgroundImageFix"/>
<feColorMatrix in="SourceAlpha" type="matrix" values="0 0 0 0 0 0 0 0 0 0 0 0 0 0 0 0 0 0 127 0" result="hardAlpha"/>
<feOffset dy="4"/>
<feGaussianBlur stdDeviation="2"/>
<feColorMatrix type="matrix" values="0 0 0 0 0 0 0 0 0 0 0 0 0 0 0 0 0 0 0.25 0"/>
<feBlend mode="normal" in2="BackgroundImageFix" result="effect1_dropShadow_1_104"/>
<feBlend mode="normal" in="SourceGraphic" in2="effect1_dropShadow_1_104" result="shape"/>
</filter>
<linearGradient id="paint0_linear_1_104" x1="211.882" y1="538.078" x2="-542.489" y2="-185.815" gradientUnits="userSpaceOnUse">
<stop offset="0.322917" stop-color="#0145FF" stop-opacity="0.255034"/>
<stop offset="0.645833" stop-color="#103EBC"/>
<stop offset="0.765625" stop-color="#103EBC" stop-opacity="0.899429"/>
<stop offset="0.828125" stop-color="#103EBC" stop-opacity="0.84"/>
<stop offset="1" stop-color="#103EBC" stop-opacity="0"/>
</linearGradient>
<linearGradient id="paint1_linear_1_104" x1="231.499" y1="541.433" x2="-527.324" y2="-113.969" gradientUnits="userSpaceOnUse">
<stop stop-color="#103EBC" stop-opacity="0.84"/>
<stop offset="0.807292" stop-color="#103EBC" stop-opacity="0"/>
<stop offset="0.9375" stop-color="#103EBC"/>
</linearGradient>
<linearGradient id="paint2_linear_1_104" x1="-35.2391" y1="7.51253" x2="133.919" y2="256.337" gradientUnits="userSpaceOnUse">
<stop stop-color="#103EBC"/>
<stop offset="0.541667" stop-color="#103EBC"/>
<stop offset="1" stop-color="#103EBC" stop-opacity="0"/>
</linearGradient>
<linearGradient id="paint3_linear_1_104" x1="141.789" y1="125.62" x2="-46.8463" y2="175.964" gradientUnits="userSpaceOnUse">
<stop offset="0.546647" stop-color="#103EBC" stop-opacity="0.4"/>
<stop offset="0.672427" stop-color="#103EBC" stop-opacity="0.8475"/>
<stop offset="0.797014" stop-color="#103EBC"/>
<stop offset="0.925338" stop-color="#103EBC" stop-opacity="0.960283"/>
</linearGradient>
</defs>
</svg>
