<svg width="40" height="40" viewBox="0 0 40 40" fill="none" xmlns="http://www.w3.org/2000/svg">
<path d="M0 20C0 8.95431 8.95431 0 20 0C31.0457 0 40 8.95431 40 20C40 31.0457 31.0457 40 20 40C8.95431 40 0 31.0457 0 20Z" fill="#22BB31"/>
<path d="M20 13V28" stroke="white" stroke-linecap="round" stroke-linejoin="round"/>
<path d="M23.3333 15.7273H18.3333C17.7145 15.7273 17.121 15.9787 16.6834 16.4262C16.2458 16.8738 16 17.4808 16 18.1137C16 18.7466 16.2458 19.3535 16.6834 19.8011C17.121 20.2486 17.7145 20.5 18.3333 20.5H21.6667C22.2855 20.5 22.879 20.7514 23.3166 21.199C23.7542 21.6465 24 22.2535 24 22.8864C24 23.5193 23.7542 24.1263 23.3166 24.5738C22.879 25.0213 22.2855 25.2727 21.6667 25.2727H16" stroke="white" stroke-linecap="round" stroke-linejoin="round"/>
</svg>
